# xmcd CD database file
#
# Track frame offsets:
#	150
#	4342
#	15765
#	24808
#	37239
#	48565
#	60126
#	71715
#	82854
#	89522
#	97916
#	104782
#	109733
#	111758
#	118479
#	126630
#	138928
#	142549
#	147741
#	153877
#	158228
#	162597
#	169378
#	169828
#	170278
#	170717
#	171107
#	171505
#	186915
#	199622
#	232520
#
# Disc length: 3121 seconds
#
# Revision: 3
# Processed by: cddbd v1.5.1PL0 Copyright (c) Steve Scherf et al.
# Submitted via: CDex 1.51
#
DISCID=a80c2f1f
DTITLE=SNK PLAYMORE - ティンクルスタースプライツ -La Petite Princesse- サウンドトラック [DISC1]
DYEAR=2005
DGENRE=Game
TTITLE0=オープニングデモ
TTITLE1=Applicot ground [森ステージ]
TTITLE2=Holidays [森ステージ(ヤン・ヤンヤン)]
TTITLE3=devil's way [魔界ステージ]
TTITLE4=Rosselian(Re:Birth mix) [魔界ステージ(ダーク・ラン)]
TTITLE5=Love so(lovely mix) [空ステージ]
TTITLE6=Love me(lovely mix) [空ステージ(メモリー)]
TTITLE7=rainbow [水ステージ]
TTITLE8=water four [水ステージ(ド・エッヂ)]
TTITLE9=Love again [天使界ステージ]
TTITLE10=star distortion [異界ステージ]
TTITLE11=star falls [コンティニュー]
TTITLE12=Lovely [ランキング]
TTITLE13=mind bounces [会話デモ]
TTITLE14=bouncing bomb [会話デモ(激しい)]
TTITLE15=Love will never die(innocent version) [会話デモ(メモリー)]
TTITLE16=Legal vigor [キャラクターモードエンディング]
TTITLE17=snack Market [キャラセレクト]
TTITLE18=searches feeling [ストーリーモードオープニング]
TTITLE19=Late sunlight [ストーリーモードエンディング１]
TTITLE20=country living [ストーリーモードエンディング２]
TTITLE21=Now adventure [スタッフロール]
TTITLE22=Flying away [対戦前VSアイキャッチ]
TTITLE23=Ecstasy [勝利デモ]
TTITLE24=Be promoted [BBモード段位認定]
TTITLE25=Insistence [乱入]
TTITLE26=discouraged [ゲームオーバー]
TTITLE27=Love will never die(innocent version remix)
TTITLE28=Love will never die(ss version)
TTITLE29=タイム・バターミット
TTITLE30=システム
EXTD=YEAR: 2005
EXTT0=
EXTT1=
EXTT2=
EXTT3=
EXTT4=
EXTT5=
EXTT6=
EXTT7=
EXTT8=
EXTT9=
EXTT10=
EXTT11=
EXTT12=
EXTT13=
EXTT14=
EXTT15=
EXTT16=
EXTT17=
EXTT18=
EXTT19=
EXTT20=
EXTT21=
EXTT22=
EXTT23=
EXTT24=
EXTT25=
EXTT26=
EXTT27=
EXTT28=
EXTT29=
EXTT30=
PLAYORDER=
